<svg xmlns:xlink="http://www.w3.org/1999/xlink"  width="100%" xmlns="http://www.w3.org/2000/svg" fill="none" viewBox="0 0 124 40">
  <path fill="#521FCC" d="M0 0h124v37H0z"></path>
  <path fill="#fff" d="M74.502 22.05V5H69.53v18.776a5.267 5.267 0 0 0 5.266 5.27h1.732V24.07h-.005a2.021 2.021 0 0 1-2.02-2.02Z"></path>
  <path fill="#fff" d="M82.018 5a2.719 2.719 0 1 0 .002 5.44A2.719 2.719 0 0 0 82.019 5Z"></path>
  <path fill="#fff" d="M84.505 13.126h-4.973v15.92h4.973v-15.92Z"></path>
  <path fill="#fff" d="M87.981 29.046v-15.92c0-4.488 3.636-8.126 8.12-8.126v4.976a3.15 3.15 0 0 0-3.147 3.15v4.766h3.148v3.791h-3.148v7.363H87.98Z"></path>
  <path fill="#fff" d="M36.02 35.024a4.447 4.447 0 0 1-4.445-4.448h-4.973c0 5.205 4.217 9.424 9.419 9.424 5.201 0 9.418-4.22 9.418-9.424h-4.973a4.446 4.446 0 0 1-4.445 4.448Z"></path>
  <path fill="#fff" fill-rule="evenodd" d="M41.162 10.896a2.719 2.719 0 1 1 1.39 2.37 9.398 9.398 0 0 1 2.887 6.787c0 5.205-4.217 9.424-9.418 9.424-5.202 0-9.419-4.22-9.419-9.424s4.217-9.424 9.419-9.424a9.37 9.37 0 0 1 5.718 1.938 2.707 2.707 0 0 1-.577-1.671Zm-9.587 9.157a4.447 4.447 0 1 0 8.891 0 4.447 4.447 0 1 0-8.891 0Z" clip-rule="evenodd"></path>
  <path fill="#fff" fill-rule="evenodd" d="M15.42 10.63c-5.203 0-9.42 4.218-9.42 9.423s4.217 9.424 9.42 9.424c4.113 0 7.61-2.64 8.892-6.32h-5.067a4.927 4.927 0 0 1-8.476-1.473l13.924.003a9.457 9.457 0 0 0 .145-1.634c0-5.205-4.217-9.424-9.419-9.424Zm-4.43 7.263a4.927 4.927 0 0 1 8.858 0H10.99Z" clip-rule="evenodd"></path>
  <path fill="#fff" fill-rule="evenodd" d="M107.294 10.63c5.202 0 9.419 4.218 9.419 9.423 0 .558-.051 1.103-.144 1.633l-13.923-.002a4.926 4.926 0 0 0 8.476 1.473h5.066c-1.282 3.68-4.779 6.32-8.894 6.32-5.201 0-9.418-4.22-9.418-9.424 0-5.205 4.217-9.424 9.418-9.424Zm0 4.493a4.925 4.925 0 0 0-4.428 2.77h8.857a4.925 4.925 0 0 0-4.429-2.77Z" clip-rule="evenodd"></path>
  <path fill="#fff" d="M52.19 30.576a4.447 4.447 0 1 0 8.89 0h4.973c0 5.205-4.217 9.424-9.418 9.424-5.202 0-9.419-4.22-9.419-9.424h4.973Z"></path>
  <path fill="#fff" fill-rule="evenodd" d="M64.494 8.176a2.72 2.72 0 0 0-2.14 4.39 9.37 9.37 0 0 0-5.72-1.937c-5.2 0-9.418 4.22-9.418 9.424 0 5.205 4.217 9.424 9.419 9.424 5.201 0 9.418-4.22 9.418-9.424a9.398 9.398 0 0 0-2.887-6.786 2.718 2.718 0 0 0 4.045-2.37 2.719 2.719 0 0 0-2.717-2.72Zm-7.86 16.325a4.447 4.447 0 0 1-4.445-4.448 4.447 4.447 0 1 1 8.891 0 4.447 4.447 0 0 1-4.445 4.448Z" clip-rule="evenodd"></path>
  <path fill="#fff" fill-rule="evenodd" d="m117.185 12.666-.322-.443c.167-.035.306-.155.306-.435 0-.226-.143-.443-.454-.443h-.544v1.32h.315v-.43h.046l.303.43h.35Zm-.699-.676v-.361h.182c.132 0 .178.105.178.175 0 .078-.046.186-.189.186h-.171Z" clip-rule="evenodd"></path>
  <path fill="#fff" fill-rule="evenodd" d="M116.641 13.377c.757 0 1.359-.614 1.359-1.371 0-.758-.602-1.376-1.359-1.376s-1.355.614-1.355 1.376c0 .757.598 1.371 1.355 1.371Zm0-2.506c.621 0 1.118.509 1.118 1.135 0 .621-.497 1.13-1.118 1.13a1.125 1.125 0 0 1-1.119-1.13c0-.622.498-1.135 1.119-1.135Z" clip-rule="evenodd"></path>
</svg>